<mxfile host="app.diagrams.net" agent="Mozilla/5.0 (Windows NT 10.0; Win64; x64) AppleWebKit/537.36 (KHTML, like Gecko) Chrome/131.0.0.0 Safari/537.36" version="25.0.3">
  <diagram name="Página-1" id="bqSLXWLM2ICRi-HMAkXr">
    <mxGraphModel dx="1509" dy="821" grid="1" gridSize="10" guides="1" tooltips="1" connect="1" arrows="1" fold="1" page="1" pageScale="1" pageWidth="1169" pageHeight="827" math="0" shadow="0">
      <root>
        <mxCell id="0" />
        <mxCell id="1" parent="0" />
        <mxCell id="_oOxYickGk842K9Q29Tc-1" style="edgeStyle=orthogonalEdgeStyle;rounded=0;orthogonalLoop=1;jettySize=auto;html=1;" edge="1" parent="1" source="_oOxYickGk842K9Q29Tc-2" target="_oOxYickGk842K9Q29Tc-5">
          <mxGeometry relative="1" as="geometry" />
        </mxCell>
        <mxCell id="_oOxYickGk842K9Q29Tc-2" value="INICIO" style="strokeWidth=2;html=1;shape=mxgraph.flowchart.start_1;whiteSpace=wrap;" vertex="1" parent="1">
          <mxGeometry x="511.96000000000004" y="124" width="100" height="60" as="geometry" />
        </mxCell>
        <mxCell id="_oOxYickGk842K9Q29Tc-3" value="FIM" style="strokeWidth=2;html=1;shape=mxgraph.flowchart.start_1;whiteSpace=wrap;" vertex="1" parent="1">
          <mxGeometry x="511.96000000000004" y="730" width="100" height="60" as="geometry" />
        </mxCell>
        <mxCell id="_oOxYickGk842K9Q29Tc-4" style="edgeStyle=orthogonalEdgeStyle;rounded=0;orthogonalLoop=1;jettySize=auto;html=1;" edge="1" parent="1" source="_oOxYickGk842K9Q29Tc-5" target="_oOxYickGk842K9Q29Tc-7">
          <mxGeometry relative="1" as="geometry" />
        </mxCell>
        <mxCell id="_oOxYickGk842K9Q29Tc-5" value="NOME" style="shape=parallelogram;html=1;strokeWidth=2;perimeter=parallelogramPerimeter;whiteSpace=wrap;rounded=1;arcSize=12;size=0.23;" vertex="1" parent="1">
          <mxGeometry x="511.96000000000004" y="214" width="100" height="30" as="geometry" />
        </mxCell>
        <mxCell id="_oOxYickGk842K9Q29Tc-6" style="edgeStyle=orthogonalEdgeStyle;rounded=0;orthogonalLoop=1;jettySize=auto;html=1;" edge="1" parent="1" target="_oOxYickGk842K9Q29Tc-8">
          <mxGeometry relative="1" as="geometry">
            <mxPoint x="561.9599999999999" y="364" as="targetPoint" />
            <mxPoint x="562" y="344" as="sourcePoint" />
          </mxGeometry>
        </mxCell>
        <mxCell id="_oOxYickGk842K9Q29Tc-22" style="edgeStyle=orthogonalEdgeStyle;rounded=0;orthogonalLoop=1;jettySize=auto;html=1;exitX=0.5;exitY=1;exitDx=0;exitDy=0;" edge="1" parent="1" source="_oOxYickGk842K9Q29Tc-7" target="_oOxYickGk842K9Q29Tc-21">
          <mxGeometry relative="1" as="geometry" />
        </mxCell>
        <mxCell id="_oOxYickGk842K9Q29Tc-7" value="BASE" style="shape=parallelogram;html=1;strokeWidth=2;perimeter=parallelogramPerimeter;whiteSpace=wrap;rounded=1;arcSize=12;size=0.23;" vertex="1" parent="1">
          <mxGeometry x="511.96000000000004" y="264" width="100" height="30" as="geometry" />
        </mxCell>
        <mxCell id="_oOxYickGk842K9Q29Tc-8" value="salarioFinal = base" style="rounded=1;whiteSpace=wrap;html=1;absoluteArcSize=1;arcSize=14;strokeWidth=2;" vertex="1" parent="1">
          <mxGeometry x="466.96000000000004" y="379" width="190" height="30" as="geometry" />
        </mxCell>
        <mxCell id="_oOxYickGk842K9Q29Tc-10" style="edgeStyle=orthogonalEdgeStyle;rounded=0;orthogonalLoop=1;jettySize=auto;html=1;exitX=0.5;exitY=1;exitDx=0;exitDy=0;" edge="1" parent="1" source="_oOxYickGk842K9Q29Tc-8" target="_oOxYickGk842K9Q29Tc-15">
          <mxGeometry relative="1" as="geometry">
            <mxPoint x="561.96" y="439" as="targetPoint" />
          </mxGeometry>
        </mxCell>
        <mxCell id="_oOxYickGk842K9Q29Tc-11" style="edgeStyle=orthogonalEdgeStyle;rounded=0;orthogonalLoop=1;jettySize=auto;html=1;" edge="1" parent="1" source="_oOxYickGk842K9Q29Tc-15" target="_oOxYickGk842K9Q29Tc-23">
          <mxGeometry relative="1" as="geometry">
            <mxPoint x="702" y="514" as="targetPoint" />
            <Array as="points">
              <mxPoint x="722" y="464" />
            </Array>
          </mxGeometry>
        </mxCell>
        <mxCell id="_oOxYickGk842K9Q29Tc-12" value="SIM" style="edgeLabel;html=1;align=center;verticalAlign=middle;resizable=0;points=[];" vertex="1" connectable="0" parent="_oOxYickGk842K9Q29Tc-11">
          <mxGeometry x="-0.7222" y="3" relative="1" as="geometry">
            <mxPoint x="8" y="3" as="offset" />
          </mxGeometry>
        </mxCell>
        <mxCell id="_oOxYickGk842K9Q29Tc-13" style="edgeStyle=orthogonalEdgeStyle;rounded=0;orthogonalLoop=1;jettySize=auto;html=1;entryX=0.14;entryY=0.653;entryDx=0;entryDy=0;entryPerimeter=0;exitX=0;exitY=0.5;exitDx=0;exitDy=0;exitPerimeter=0;" edge="1" parent="1" source="_oOxYickGk842K9Q29Tc-15" target="_oOxYickGk842K9Q29Tc-20">
          <mxGeometry relative="1" as="geometry">
            <Array as="points">
              <mxPoint x="382" y="464" />
              <mxPoint x="382" y="604" />
            </Array>
            <mxPoint x="477" y="474" as="sourcePoint" />
          </mxGeometry>
        </mxCell>
        <mxCell id="_oOxYickGk842K9Q29Tc-14" value="NÃO" style="edgeLabel;html=1;align=center;verticalAlign=middle;resizable=0;points=[];" vertex="1" connectable="0" parent="_oOxYickGk842K9Q29Tc-13">
          <mxGeometry x="-0.7465" y="-2" relative="1" as="geometry">
            <mxPoint x="13" y="2" as="offset" />
          </mxGeometry>
        </mxCell>
        <mxCell id="_oOxYickGk842K9Q29Tc-15" value="FATURAMENTO &amp;gt; 5000" style="strokeWidth=2;html=1;shape=mxgraph.flowchart.decision;whiteSpace=wrap;" vertex="1" parent="1">
          <mxGeometry x="472.02" y="434" width="184.94" height="60" as="geometry" />
        </mxCell>
        <mxCell id="_oOxYickGk842K9Q29Tc-26" style="edgeStyle=orthogonalEdgeStyle;rounded=0;orthogonalLoop=1;jettySize=auto;html=1;exitX=0.5;exitY=1;exitDx=0;exitDy=0;" edge="1" parent="1" source="_oOxYickGk842K9Q29Tc-20" target="_oOxYickGk842K9Q29Tc-25">
          <mxGeometry relative="1" as="geometry" />
        </mxCell>
        <mxCell id="_oOxYickGk842K9Q29Tc-20" value="" style="ellipse;whiteSpace=wrap;html=1;strokeWidth=1;" vertex="1" parent="1">
          <mxGeometry x="546.9599999999999" y="584" width="30" height="30" as="geometry" />
        </mxCell>
        <mxCell id="_oOxYickGk842K9Q29Tc-21" value="FATURAMENTO" style="shape=parallelogram;html=1;strokeWidth=2;perimeter=parallelogramPerimeter;whiteSpace=wrap;rounded=1;arcSize=12;size=0.23;" vertex="1" parent="1">
          <mxGeometry x="486.94" y="324" width="150.04" height="30" as="geometry" />
        </mxCell>
        <mxCell id="_oOxYickGk842K9Q29Tc-24" style="edgeStyle=orthogonalEdgeStyle;rounded=0;orthogonalLoop=1;jettySize=auto;html=1;entryX=1;entryY=0.5;entryDx=0;entryDy=0;" edge="1" parent="1" source="_oOxYickGk842K9Q29Tc-23" target="_oOxYickGk842K9Q29Tc-20">
          <mxGeometry relative="1" as="geometry">
            <Array as="points">
              <mxPoint x="722" y="599" />
            </Array>
          </mxGeometry>
        </mxCell>
        <mxCell id="_oOxYickGk842K9Q29Tc-23" value="salarioFinal = salarioFinal+ 300" style="rounded=1;whiteSpace=wrap;html=1;absoluteArcSize=1;arcSize=14;strokeWidth=2;" vertex="1" parent="1">
          <mxGeometry x="636.98" y="514" width="173.02" height="30" as="geometry" />
        </mxCell>
        <mxCell id="_oOxYickGk842K9Q29Tc-27" style="edgeStyle=orthogonalEdgeStyle;rounded=0;orthogonalLoop=1;jettySize=auto;html=1;" edge="1" parent="1" source="_oOxYickGk842K9Q29Tc-25" target="_oOxYickGk842K9Q29Tc-3">
          <mxGeometry relative="1" as="geometry" />
        </mxCell>
        <mxCell id="_oOxYickGk842K9Q29Tc-25" value="FINAL" style="strokeWidth=2;html=1;shape=mxgraph.flowchart.display;whiteSpace=wrap;" vertex="1" parent="1">
          <mxGeometry x="511.96" y="640" width="100" height="50" as="geometry" />
        </mxCell>
      </root>
    </mxGraphModel>
  </diagram>
</mxfile>
